<svg version="1" xmlns="http://www.w3.org/2000/svg" width="498.667" height="498.667" viewBox="0 0 374.000000 374.000000"><path d="M83.9 63.7c-.1.5-.2 6.9-.3 14.3l-.1 13.5h-41c-22.6 0-40.9.3-40.8.8.9 3.3 2.2 3.9 9.1 3.9h7.1l8.3 12.6c4.6 6.9 8.8 13 9.4 13.6.7.7 8.9 1.1 24.2 1 16.1-.1 23.2.2 23.5 1 .2.6.4 2.9.3 5.1l-.1 4H52.7c-16.9 0-30.7.3-30.7.6s.6 1.4 1.4 2.4c1.2 1.7 2.6 1.9 10.3 1.8l9-.2 9 13.7 9.1 13.7h11.4l11.5-.1-.1 5-.1 5.1H63.8c-10.8.1-19.9.3-20.2.5-.2.3.2 1.3.9 2.4 1.2 1.5 2.9 1.8 12.2 1.9l10.8.1 8 12 8 12.1.2 14.5c0 8 .2 14.8.2 15.1.1.5 18.4 14.7 25.1 19.4 2.6 1.8 36.7 27.7 60.7 46 15.6 11.9 18 13.5 19.2 13.5.7 0 12.1-8.2 25.4-18.3 13.3-10.1 36.4-27.5 51.2-38.7 14.9-11.2 27.4-20.6 27.8-21 .5-.4.8-7.4.8-15.5v-14.7l7.6-11.7c4.2-6.4 7.9-11.8 8.1-12.1.2-.3 5-.5 10.7-.6 6.9 0 10.9-.5 12-1.4 3.8-3.1 1.7-3.5-18.5-3.5l-20 .1.1-5.1.2-5.1h11.4c6.2-.1 11.5-.3 11.7-.5.2-.2 4.2-6.3 9-13.6l8.7-13.1h9c7.7.1 9.2-.2 10.4-1.8.8-1 1.5-2.1 1.5-2.4 0-.3-13.8-.5-30.7-.5h-30.8l-.3-5.1-.3-5h24c13.3 0 24.2-.2 24.4-.5.2-.2 4.3-6.4 9.1-13.7l8.7-13.2 5.7.1c8.1.2 8.2.1 8.2-2.4v-2.2h-79.5l-.2-12.5c-.1-6.9-.2-13.3-.2-14.3-.1-1.6-5.8-1.7-105.1-1.7-57.7 0-105 .3-105.1.7zm176.2 33.2c.3 0 .5 27.1.5 60.2l-.1 60.1-4.5 3.7c-5.2 4.3-48.7 37.1-49.2 37.1-.2 0-.4-19-.3-42.3 0-23.2-.1-43.1-.3-44.3-.3-1.9-1-2-17.6-2h-17.2l.1 44.3c0 24.4-.2 44.3-.4 44.3-.3 0-12.5-9.1-27.3-20.2L117 217.5v-60.2c0-39.9.3-60.2 1-60.5.9-.3 140.7-.2 142.1.1z"/><path d="M183.8 121.5c-10.8 2.7-16.7 12.8-13.8 23.5 2.6 9.8 12.8 15.4 23.7 13 10.8-2.5 17.1-12.6 14.2-23.3-1-3.8-5.7-10-9-11.8-3.7-1.9-10.5-2.6-15.1-1.4z"/></svg>